<svg xmlns="http://www.w3.org/2000/svg" width="121.454" height="24.249" viewBox="0 0 121.454 24.249"><defs><style>.a{fill:#233052;}</style></defs><g transform="translate(-51.311 -1.751)"><g transform="translate(51.311 1.751)"><g transform="translate(0)"><path class="a" d="M52.619,218.428l3.772,1.545,1.367-2.958h.022l3.507-7.472,3.064,6.551H59.709l3.879,3.878H70.7l-9.41-19.3Z" transform="translate(-52.619 -200.67)"/><path class="a" d="M112.5,216.482a5.285,5.285,0,0,0-1.855-1.264,6.584,6.584,0,0,0-2.5-.457,4.6,4.6,0,0,0-3.064,1.049v-.834h-4.034v13.445h4.06v-8.793a3.527,3.527,0,0,1,1.157-.861,3.078,3.078,0,0,1,1.237-.3,2.009,2.009,0,0,1,1.882.915,4.262,4.262,0,0,1,.565,2.258v6.777h4.061v-7.5a8.1,8.1,0,0,0-.378-2.5A4.97,4.97,0,0,0,112.5,216.482Z" transform="translate(-81.658 -209.119)"/><path class="a" d="M145.951,215.783a4.83,4.83,0,0,0-1.371-.753,4.625,4.625,0,0,0-1.614-.269,6.373,6.373,0,0,0-2.715.565,6.115,6.115,0,0,0-2.044,1.533,6.835,6.835,0,0,0-1.291,2.232,7.824,7.824,0,0,0,0,5.271,6.84,6.84,0,0,0,1.291,2.232,6.093,6.093,0,0,0,2.044,1.533,6.247,6.247,0,0,0,2.688.565,5.337,5.337,0,0,0,1.614-.242,4.209,4.209,0,0,0,1.372-.726l.026-.081v.78h4.061V214.976h-4.061Zm-.026,8.147a2.729,2.729,0,0,1-2.259,1.1l-.026-.026a3.241,3.241,0,0,1-1.291-.243,2.793,2.793,0,0,1-.969-.7,3.056,3.056,0,0,1-.618-1.022,3.653,3.653,0,0,1,0-2.474,3.017,3.017,0,0,1,.591-1.022,2.813,2.813,0,0,1,.968-.7,3.267,3.267,0,0,1,1.291-.242,2.884,2.884,0,0,1,1.317.3,3.138,3.138,0,0,1,1,.808Z" transform="translate(-102.891 -209.119)"/><path class="a" d="M187.208,216.792a6.237,6.237,0,0,0-4.76-2.1,4.591,4.591,0,0,0-1.613.269,4.85,4.85,0,0,0-1.372.753v-.807l-4.033.027v16.679l4.061,1.712V227.6a4.2,4.2,0,0,0,1.371.727,5.35,5.35,0,0,0,1.614.242,6.261,6.261,0,0,0,2.689-.565,6.115,6.115,0,0,0,2.044-1.533,6.706,6.706,0,0,0,1.29-2.2,7.818,7.818,0,0,0,0-5.271A6.7,6.7,0,0,0,187.208,216.792Zm-2.609,6.1a3.044,3.044,0,0,1-.618,1.022,2.8,2.8,0,0,1-.968.7,3.239,3.239,0,0,1-1.29.242,2.678,2.678,0,0,1-2.287-1.1v-4.222a2.7,2.7,0,0,1,2.287-1.129h.026a3.234,3.234,0,0,1,1.291.242,2.777,2.777,0,0,1,.968.7,2.973,2.973,0,0,1,.591,1.022,3.814,3.814,0,0,1,0,2.527Z" transform="translate(-126.259 -209.08)"/><path class="a" d="M220.133,215.783a4.831,4.831,0,0,0-1.371-.753,4.625,4.625,0,0,0-1.614-.269,6.372,6.372,0,0,0-2.715.565,6.114,6.114,0,0,0-2.044,1.533,6.834,6.834,0,0,0-1.291,2.232,7.826,7.826,0,0,0,0,5.271,6.84,6.84,0,0,0,1.291,2.232,6.092,6.092,0,0,0,2.044,1.533,6.249,6.249,0,0,0,2.688.565,5.337,5.337,0,0,0,1.614-.242,4.208,4.208,0,0,0,1.372-.726l.026-.081v.78h4.061V214.976h-4.061Zm-.026,8.147a2.729,2.729,0,0,1-2.259,1.1l-.026-.026a3.241,3.241,0,0,1-1.291-.243,2.786,2.786,0,0,1-.968-.7,3.052,3.052,0,0,1-.618-1.022,3.654,3.654,0,0,1,0-2.474,3.02,3.02,0,0,1,.591-1.022,2.816,2.816,0,0,1,.969-.7,3.263,3.263,0,0,1,1.291-.242,2.884,2.884,0,0,1,1.317.3,3.137,3.137,0,0,1,1,.808Z" transform="translate(-147.372 -209.119)"/><path class="a" d="M261.068,216.482a5.3,5.3,0,0,0-1.856-1.264,6.59,6.59,0,0,0-2.5-.457,4.61,4.61,0,0,0-3.065,1.049v-.834h-4.034v13.445h4.061v-8.793a3.5,3.5,0,0,1,1.156-.861,3.075,3.075,0,0,1,1.236-.3,2.011,2.011,0,0,1,1.883.915,4.263,4.263,0,0,1,.565,2.258v6.777h4.06v-7.5a8.133,8.133,0,0,0-.376-2.5A4.978,4.978,0,0,0,261.068,216.482Z" transform="translate(-170.74 -209.119)"/><path class="a" d="M294.517,207.649a4.842,4.842,0,0,0-1.372-.753,4.62,4.62,0,0,0-1.613-.269,6.379,6.379,0,0,0-2.717.564,6.125,6.125,0,0,0-2.043,1.533,6.855,6.855,0,0,0-1.291,2.232,7.843,7.843,0,0,0,0,5.271,6.86,6.86,0,0,0,1.291,2.232,6.1,6.1,0,0,0,2.043,1.533,6.26,6.26,0,0,0,2.689.565,5.34,5.34,0,0,0,1.614-.242,4.2,4.2,0,0,0,1.371-.726l.027-.081v.78h4.06V202.97l-4.06-1.774Zm-.027,8.147a2.727,2.727,0,0,1-2.258,1.1l-.027-.026a3.248,3.248,0,0,1-1.291-.243,2.789,2.789,0,0,1-.968-.7,3.078,3.078,0,0,1-.618-1.022,3.68,3.68,0,0,1,0-2.474,3,3,0,0,1,.592-1.022,2.814,2.814,0,0,1,.968-.7,3.261,3.261,0,0,1,1.29-.242,2.888,2.888,0,0,1,1.318.3,3.128,3.128,0,0,1,.995.808Z" transform="translate(-191.974 -200.985)"/><path class="a" d="M331.608,214.976v.806a4.845,4.845,0,0,0-1.372-.753,4.621,4.621,0,0,0-1.613-.269,6.379,6.379,0,0,0-2.717.565,6.126,6.126,0,0,0-2.044,1.533,6.849,6.849,0,0,0-1.291,2.232,7.838,7.838,0,0,0,0,5.271,6.854,6.854,0,0,0,1.291,2.232,6.1,6.1,0,0,0,2.044,1.533,6.26,6.26,0,0,0,2.689.565,5.339,5.339,0,0,0,1.613-.242,4.2,4.2,0,0,0,1.371-.726l.027-.081v.78h4.06V214.976Zm-.027,8.954a2.727,2.727,0,0,1-2.258,1.1l-.027-.026a3.245,3.245,0,0,1-1.291-.243,2.787,2.787,0,0,1-.968-.7,3.078,3.078,0,0,1-.618-1.022,3.679,3.679,0,0,1,0-2.474,3,3,0,0,1,.592-1.022,2.814,2.814,0,0,1,.968-.7,3.26,3.26,0,0,1,1.29-.242,2.889,2.889,0,0,1,1.319.3,3.127,3.127,0,0,1,.994.808Z" transform="translate(-214.215 -209.119)"/></g></g></g></svg>