<svg xmlns="http://www.w3.org/2000/svg" width="20" height="20" viewBox="0 0 20 20"><defs><style>.a{fill:#eaecf5;}.b{fill:#8e909d;}</style></defs><rect class="a" width="20" height="20" rx="5"/><path class="b" d="M491.931,414.941l2.488-2.489.627.627a.115.115,0,0,0,.161,0h0a1.886,1.886,0,0,0,0-2.668l-.868-.868a1.888,1.888,0,0,0-2.668,0h0a.115.115,0,0,0,0,.161l.627.627-2.489,2.488a.479.479,0,0,1-.679,0h0a1.52,1.52,0,0,0-2.149,0l-.34.34,4.95,4.95.34-.34a1.52,1.52,0,0,0,0-2.149h0A.479.479,0,0,1,491.931,414.941Z" transform="translate(-481 -404)"/><path class="b" d="M488.055,415.987l-2.828,2.828v.707h.707l2.828-2.828Z" transform="translate(-481 -404)"/></svg>